<svg xmlns="http://www.w3.org/2000/svg" viewBox="0 0 200 200">
  <defs>
    <linearGradient id="g1" x1="0" y1="0" x2="1" y2="1">
      <stop offset="0%" stop-color="#4CAF50"/>
      <stop offset="100%" stop-color="#2196F3"/>
    </linearGradient>
  </defs>
  <rect width="200" height="200" fill="#1a1a2e" rx="100"/>
  <circle cx="100" cy="100" r="70" fill="none" stroke="#4CAF50" stroke-width="0.3" opacity="0.15"/>
  <circle cx="100" cy="100" r="45" fill="none" stroke="#2196F3" stroke-width="0.3" opacity="0.12"/>
  <circle cx="100" cy="100" r="22" fill="none" stroke="#4CAF50" stroke-width="0.3" opacity="0.1"/>
  <g fill="#4CAF50">
    <circle cx="100" cy="100" r="5"/>
    <circle cx="100" cy="100" r="8" fill="none" stroke="url(#g1)" stroke-width="1.2"/>
  </g>
  <g fill="#4CAF50" opacity="0.6">
    <circle cx="100" cy="30" r="1.5"/>
    <circle cx="130" cy="35" r="1.5"/>
    <circle cx="155" cy="50" r="1.5"/>
    <circle cx="170" cy="75" r="1.5"/>
    <circle cx="172" cy="105" r="1.5"/>
    <circle cx="165" cy="132" r="1.5"/>
    <circle cx="148" cy="155" r="1.5"/>
    <circle cx="125" cy="170" r="1.5"/>
    <circle cx="100" cy="175" r="1.5"/>
    <circle cx="72" cy="170" r="1.5"/>
    <circle cx="48" cy="155" r="1.5"/>
    <circle cx="32" cy="132" r="1.5"/>
    <circle cx="27" cy="105" r="1.5"/>
    <circle cx="30" cy="78" r="1.5"/>
    <circle cx="42" cy="52" r="1.5"/>
    <circle cx="65" cy="35" r="1.5"/>
  </g>
  <g fill="#2196F3" opacity="0.3">
    <circle cx="100" cy="60" r="1"/>
    <circle cx="140" cy="60" r="1"/>
    <circle cx="160" cy="90" r="1"/>
    <circle cx="148" cy="138" r="1"/>
    <circle cx="114" cy="165" r="1"/>
    <circle cx="78" cy="155" r="1"/>
    <circle cx="52" cy="128" r="1"/>
    <circle cx="45" cy="90" r="1"/>
    <circle cx="65" cy="60" r="1"/>
  </g>
</svg>
